<svg xmlns="http://www.w3.org/2000/svg" viewBox="0 0 472.68 65.31"><defs><style>.cls-1{fill:#fff;}.cls-2{fill:none;stroke:#fff;stroke-miterlimit:10;}.cls-3{fill:#26a9e0;}</style></defs><title>Asset 1</title><g id="Layer_2" data-name="Layer 2"><g id="Layer_1-2" data-name="Layer 1"><path class="cls-1" d="M0,1.56H6.76L27.37,49.61l21-48h6.76L28,63.75H26.67Z"/><path class="cls-1" d="M60.31,1.56h6.21V63.75H60.31Z"/><path class="cls-1" d="M71.71,1.56h6.76L99.08,49.61l21-48h6.76L99.73,63.75H98.38Z"/><path class="cls-1" d="M162.51,0q14.13,0,23.65,9.43a31.4,31.4,0,0,1,9.52,23.21,31.55,31.55,0,0,1-9.5,23.16,33.24,33.24,0,0,1-46.51,0,31.15,31.15,0,0,1-9.52-22.91,33.14,33.14,0,0,1,4.34-16.61A32,32,0,0,1,162.51,0Zm.28,6.05A25.64,25.64,0,0,0,149.7,9.64a25.86,25.86,0,0,0-9.65,9.69,27,27,0,0,0-3.47,13.58,25.38,25.38,0,0,0,7.68,18.72,25.34,25.34,0,0,0,18.53,7.64,26.63,26.63,0,0,0,13.4-3.51,25.13,25.13,0,0,0,9.61-9.61,27,27,0,0,0,3.45-13.54,26.3,26.3,0,0,0-3.45-13.38,25.73,25.73,0,0,0-9.72-9.59A26.27,26.27,0,0,0,162.79,6.05Z"/><line class="cls-2" x1="222.18" y1="0.39" x2="222.18" y2="64.39"/><path class="cls-3" d="M249.27,53.29l4.14-2.48q4.36,8,10.08,8a9.67,9.67,0,0,0,4.6-1.14,8.21,8.21,0,0,0,3.27-3.06,7.94,7.94,0,0,0,1.13-4.07,8.23,8.23,0,0,0-1.66-4.8q-2.28-3.24-8.33-7.8t-7.57-6.65a12.14,12.14,0,0,1-2.58-7.44,11.28,11.28,0,0,1,1.52-5.79A10.79,10.79,0,0,1,258.15,14a12.26,12.26,0,0,1,6-1.51,12.78,12.78,0,0,1,6.44,1.71,22.08,22.08,0,0,1,6.33,6.26l-4,3a19.05,19.05,0,0,0-4.68-4.79,8.07,8.07,0,0,0-4.22-1.16,6.68,6.68,0,0,0-4.81,1.78,5.89,5.89,0,0,0-1.87,4.4,7.37,7.37,0,0,0,.67,3.08A11.32,11.32,0,0,0,260.45,30q1,.93,6.28,4.86,6.31,4.66,8.67,8.3a13.43,13.43,0,0,1,2.35,7.31,12.39,12.39,0,0,1-4,9.19,13.52,13.52,0,0,1-9.77,3.9,14.3,14.3,0,0,1-8-2.36Q252.32,58.84,249.27,53.29Z"/><path class="cls-3" d="M318.8,33.85l-3.67,2.28a15.37,15.37,0,0,0-13-6.32A15,15,0,0,0,291.24,34a13.79,13.79,0,0,0-4.35,10.27,14.61,14.61,0,0,0,2,7.4,14.05,14.05,0,0,0,5.48,5.39A16.05,16.05,0,0,0,302.19,59a15.78,15.78,0,0,0,12.94-6.31l3.67,2.41a17.26,17.26,0,0,1-6.92,6A22.24,22.24,0,0,1,302,63.28a19.54,19.54,0,0,1-14.15-5.43,17.62,17.62,0,0,1-5.62-13.19A18.81,18.81,0,0,1,284.83,35a18.52,18.52,0,0,1,7.22-7,21,21,0,0,1,10.29-2.51,21.84,21.84,0,0,1,6.89,1.09,18.87,18.87,0,0,1,5.64,2.84A15.51,15.51,0,0,1,318.8,33.85Z"/><path class="cls-3" d="M324.31,12.48h4.63V32.82a19.7,19.7,0,0,1,6.19-5.54,15.08,15.08,0,0,1,7.31-1.83,12.75,12.75,0,0,1,7.16,2.05,12.2,12.2,0,0,1,4.61,5.5q1.49,3.47,1.49,10.83V62.35h-4.63V45.19a43.8,43.8,0,0,0-.5-8.3,9.43,9.43,0,0,0-3.12-5.38,9.27,9.27,0,0,0-5.94-1.8A11.41,11.41,0,0,0,334,32.49a12.93,12.93,0,0,0-4.38,6.88,46.65,46.65,0,0,0-.67,9.79V62.35h-4.63Z"/><path class="cls-3" d="M379.26,25.45a17.82,17.82,0,0,1,13.78,6,18.75,18.75,0,0,1,5,13,18.73,18.73,0,0,1-5.25,13.18,19,19,0,0,1-27,0,18.73,18.73,0,0,1-5.25-13.18,18.65,18.65,0,0,1,5-13A17.79,17.79,0,0,1,379.26,25.45Zm0,4.53a13.38,13.38,0,0,0-9.92,4.26,14.31,14.31,0,0,0-4.15,10.32,14.57,14.57,0,0,0,1.9,7.28,13.38,13.38,0,0,0,5.11,5.2,14.48,14.48,0,0,0,14.13,0,13.38,13.38,0,0,0,5.11-5.2,14.57,14.57,0,0,0,1.9-7.28,14.24,14.24,0,0,0-4.17-10.32A13.39,13.39,0,0,0,379.24,30Z"/><path class="cls-3" d="M402.5,12.48h4.63V62.35H402.5Z"/><path class="cls-3" d="M449.21,26.37v36h-4.56V56.17a19.85,19.85,0,0,1-6.53,5.32,18.24,18.24,0,0,1-21-3.75,18.56,18.56,0,0,1-5.41-13.48A18.22,18.22,0,0,1,417.2,31a17.79,17.79,0,0,1,13.13-5.52,17,17,0,0,1,8,1.88,18.27,18.27,0,0,1,6.3,5.66V26.37Zm-18.5,3.54a13.95,13.95,0,0,0-12.34,7.24,14.57,14.57,0,0,0,0,14.53,14.22,14.22,0,0,0,5.23,5.4A13.65,13.65,0,0,0,430.67,59a14.48,14.48,0,0,0,7.2-1.91,13.41,13.41,0,0,0,5.24-5.19,14.84,14.84,0,0,0,1.83-7.37,14.34,14.34,0,0,0-4.11-10.44A13.64,13.64,0,0,0,430.71,29.91Z"/><path class="cls-3" d="M454.49,26.37h4.73v5.26A16.77,16.77,0,0,1,463.68,27a8.86,8.86,0,0,1,4.9-1.53,8.43,8.43,0,0,1,4.1,1.22l-2.42,3.9a6.4,6.4,0,0,0-2.44-.63,6.72,6.72,0,0,0-4.47,1.9,12.07,12.07,0,0,0-3.27,5.91q-.87,3.07-.86,12.43V62.35h-4.73Z"/></g></g></svg>